<svg width="30" height="30" viewBox="0 0 30 30" fill="none" xmlns="http://www.w3.org/2000/svg">
    <circle cx="15" cy="15" r="14.5" stroke="#00B0F0" />
    <g clip-path="url(#clip0_7_731)">
        <path fill-rule="evenodd" clip-rule="evenodd"
            d="M10.5 12C10.5 9.51472 12.5147 7.5 15 7.5C17.4853 7.5 19.5 9.51472 19.5 12C19.5 14.4853 17.4853 16.5 15 16.5C12.5147 16.5 10.5 14.4853 10.5 12Z"
            fill="#00B0F0" />
        <path fill-rule="evenodd" clip-rule="evenodd"
            d="M10.0732 18.6769C11.2919 18.166 12.9175 18 15 18C17.0782 18 18.7013 18.1653 19.9189 18.6736C21.2259 19.2191 22.0281 20.146 22.4557 21.494C22.6146 21.995 22.2388 22.5 21.7194 22.5H8.27594C7.75861 22.5 7.38509 21.9973 7.54267 21.499C7.96902 20.1511 8.76839 19.2239 10.0732 18.6769Z"
            fill="#00B0F0" />
    </g>
    <defs>
        <clipPath id="clip0_7_731">
            <rect width="18" height="18" fill="white" transform="translate(6 6)" />
        </clipPath>
    </defs>
</svg>
    